<svg width="27" height="27" viewBox="0 0 27 27" fill="none" xmlns="http://www.w3.org/2000/svg">
<path d="M20.8184 11.0507C21.715 10.1421 22.2187 8.90976 22.2187 7.62478C22.2187 6.33981 21.715 5.10747 20.8184 4.19885C19.9217 3.29024 18.7056 2.77979 17.4375 2.77979C16.1694 2.77979 14.9533 3.29024 14.0566 4.19885C13.16 5.10747 12.6562 6.33981 12.6562 7.62478C12.6562 8.90976 13.16 10.1421 14.0566 11.0507C14.9533 11.9593 16.1694 12.4698 17.4375 12.4698C18.7056 12.4698 19.9217 11.9593 20.8184 11.0507Z" fill="#3A3A3A"/>
<path d="M27 20.3748C27 23.0516 27 25.2198 17.4375 25.2198C7.875 25.2198 7.875 23.0516 7.875 20.3748C7.875 17.6979 12.1542 15.5298 17.4375 15.5298C22.7208 15.5298 27 17.6979 27 20.3748Z" fill="#3A3A3A"/>
<path d="M3.97768 13.5848V16.4777C3.97768 17.0788 4.46133 17.5625 5.0625 17.5625C5.66367 17.5625 6.14732 17.0788 6.14732 16.4777V13.5848H9.04018C9.64135 13.5848 10.125 13.1012 10.125 12.5C10.125 11.8988 9.64135 11.4152 9.04018 11.4152H6.14732V8.52232C6.14732 7.92115 5.66367 7.4375 5.0625 7.4375C4.46133 7.4375 3.97768 7.92115 3.97768 8.52232V11.4152H1.08482C0.48365 11.4152 0 11.8988 0 12.5C0 13.1012 0.48365 13.5848 1.08482 13.5848H3.97768Z" fill="#3A3A3A"/>
</svg>
