<svg width="27" height="27" viewBox="0 0 27 27" fill="none" xmlns="http://www.w3.org/2000/svg">
<path fill-rule="evenodd" clip-rule="evenodd" d="M11.025 3.875H15.975C20.6416 3.875 22.9755 3.875 24.4247 5.35831C25.8738 6.84163 25.875 9.22733 25.875 14C25.875 18.7727 25.875 21.1596 24.4247 22.6417C22.9743 24.1237 20.6416 24.125 15.975 24.125H11.025C6.35839 24.125 4.02446 24.125 2.57535 22.6417C1.12624 21.1584 1.125 18.7727 1.125 14C1.125 9.22733 1.125 6.84036 2.57535 5.35831C4.0257 3.87627 6.35839 3.875 11.025 3.875ZM15.0469 10.2031C15.0469 9.95138 15.1447 9.70994 15.3187 9.53193C15.4928 9.35391 15.7288 9.25391 15.975 9.25391H22.1625C22.4087 9.25391 22.6447 9.35391 22.8188 9.53193C22.9928 9.70994 23.0906 9.95138 23.0906 10.2031C23.0906 10.4549 22.9928 10.6963 22.8188 10.8743C22.6447 11.0523 22.4087 11.1523 22.1625 11.1523H15.975C15.7288 11.1523 15.4928 11.0523 15.3187 10.8743C15.1447 10.6963 15.0469 10.4549 15.0469 10.2031ZM16.2844 14C16.2844 13.7483 16.3822 13.5068 16.5562 13.3288C16.7303 13.1508 16.9663 13.0508 17.2125 13.0508H22.1625C22.4087 13.0508 22.6447 13.1508 22.8188 13.3288C22.9928 13.5068 23.0906 13.7483 23.0906 14C23.0906 14.2517 22.9928 14.4932 22.8188 14.6712C22.6447 14.8492 22.4087 14.9492 22.1625 14.9492H17.2125C16.9663 14.9492 16.7303 14.8492 16.5562 14.6712C16.3822 14.4932 16.2844 14.2517 16.2844 14ZM17.5219 17.7969C17.5219 17.5451 17.6197 17.3037 17.7937 17.1257C17.9678 16.9477 18.2038 16.8477 18.45 16.8477H22.1625C22.4087 16.8477 22.6447 16.9477 22.8188 17.1257C22.9928 17.3037 23.0906 17.5451 23.0906 17.7969C23.0906 18.0486 22.9928 18.2901 22.8188 18.4681C22.6447 18.6461 22.4087 18.7461 22.1625 18.7461H18.45C18.2038 18.7461 17.9678 18.6461 17.7937 18.4681C17.6197 18.2901 17.5219 18.0486 17.5219 17.7969ZM12.2625 10.2031C12.2625 10.8745 12.0017 11.5183 11.5376 11.993C11.0734 12.4677 10.4439 12.7344 9.7875 12.7344C9.13109 12.7344 8.50156 12.4677 8.03741 11.993C7.57326 11.5183 7.3125 10.8745 7.3125 10.2031C7.3125 9.5318 7.57326 8.88796 8.03741 8.41326C8.50156 7.93856 9.13109 7.67188 9.7875 7.67188C10.4439 7.67188 11.0734 7.93856 11.5376 8.41326C12.0017 8.88796 12.2625 9.5318 12.2625 10.2031ZM9.7875 20.3281C14.7375 20.3281 14.7375 19.1954 14.7375 17.7969C14.7375 16.3984 12.5224 15.2656 9.7875 15.2656C7.05263 15.2656 4.8375 16.3984 4.8375 17.7969C4.8375 19.1954 4.8375 20.3281 9.7875 20.3281Z" fill="#3A3A3A"/>
</svg>
